<svg width="16" height="16" viewBox="0 0 16 16" fill="none" xmlns="http://www.w3.org/2000/svg">
  <path d="M9.57277 7.97653L14.4085 3.18779L15.3944 2.20188C15.5352 2.06103 15.5352 1.82629 15.3944 1.6385L14.3615 0.605634C14.1737 0.464789 13.939 0.464789 13.7981 0.605634L8.02347 6.42723L2.20188 0.605634C2.06103 0.464789 1.82629 0.464789 1.6385 0.605634L0.605634 1.6385C0.464789 1.82629 0.464789 2.06103 0.605634 2.20188L6.42723 7.97653L0.605634 13.7981C0.464789 13.939 0.464789 14.1737 0.605634 14.3615L1.6385 15.3944C1.82629 15.5352 2.06103 15.5352 2.20188 15.3944L8.02347 9.57277L12.8122 14.4085L13.7981 15.3944C13.939 15.5352 14.1737 15.5352 14.3615 15.3944L15.3944 14.3615C15.5352 14.1737 15.5352 13.939 15.3944 13.7981L9.57277 7.97653Z" fill="#FF0000" />
</svg>